<?xml version="1.0" encoding="utf-8"?>
<!-- Generator: Adobe Illustrator 22.0.1, SVG Export Plug-In . SVG Version: 6.00 Build 0)  -->
<svg version="1.1" id="Layer_1" xmlns="http://www.w3.org/2000/svg" xmlns:xlink="http://www.w3.org/1999/xlink" x="0px" y="0px"
	 viewBox="0 0 46 16" style="enable-background:new 0 0 46 16;" xml:space="preserve">
<path d="M11.6,1.5v2.6C10.3,3,9,2.5,7.7,2.5C6.2,2.5,4.9,3,3.9,4.1S2.4,6.5,2.4,8s0.5,2.8,1.5,3.9s2.3,1.6,3.8,1.6
	c0.8,0,1.4-0.1,2-0.4c0.3-0.1,0.6-0.3,0.9-0.5c0.3-0.2,0.7-0.5,1-0.8v2.7c-1.3,0.7-2.6,1.1-4,1.1c-2.1,0-3.9-0.7-5.3-2.2
	c-1.5-1.5-2.2-3.2-2.2-5.3c0-1.9,0.6-3.5,1.8-5c1.5-1.8,3.5-2.7,5.9-2.7C9.1,0.5,10.4,0.8,11.6,1.5z"/>
<path d="M19,0.7v14.6h-2.2V0.7H19z"/>
<path d="M32.4,7.7h6v0.5c0,1.1-0.1,2.1-0.4,2.9s-0.7,1.5-1.3,2.2c-1.4,1.5-3.1,2.3-5.2,2.3c-2,0-3.8-0.7-5.2-2.2
	c-1.5-1.5-2.2-3.3-2.2-5.3c0-2.1,0.7-3.9,2.2-5.4s3.3-2.2,5.4-2.2c1.1,0,2.2,0.2,3.2,0.7c0.9,0.5,1.9,1.2,2.8,2.3L36.1,5
	c-1.2-1.6-2.7-2.4-4.4-2.4c-1.5,0-2.8,0.5-3.9,1.6c-1,1-1.6,2.4-1.6,3.9c0,1.6,0.6,3,1.7,4s2.3,1.5,3.5,1.5c1.1,0,2.1-0.4,2.9-1.1
	c0.9-0.7,1.3-1.6,1.4-2.6h-3.6V7.7H32.4z"/>
<path d="M45.9,0.7v14.6h-2.2V0.7H45.9z"/>
</svg>
