<svg id="Layer_1" data-name="Layer 1" xmlns="http://www.w3.org/2000/svg" viewBox="0 0 129.38 37.81"><defs><style>.cls-1{fill:#231f20;}</style></defs><title>CIGI-logo-full-CMYK-th</title><path class="cls-1" d="M7.62,14v1.65a3.86,3.86,0,0,0-2.5-1,3.18,3.18,0,0,0-2.4,1,3.45,3.45,0,0,0-1,2.49,3.36,3.36,0,0,0,1,2.45,3.24,3.24,0,0,0,2.4,1,3,3,0,0,0,1.25-.24A3.6,3.6,0,0,0,7,21a7,7,0,0,0,.65-.49v1.68a5,5,0,0,1-2.51.68,4.63,4.63,0,0,1-3.38-1.38A4.58,4.58,0,0,1,.35,18.16,4.74,4.74,0,0,1,1.51,15a4.64,4.64,0,0,1,3.71-1.69A4.71,4.71,0,0,1,7.62,14Z"/><path class="cls-1" d="M14.42,20.14H10.25a1.77,1.77,0,0,0,.47,1.14,1.42,1.42,0,0,0,1.06.42,1.38,1.38,0,0,0,.83-.24,3.4,3.4,0,0,0,.73-.88l1.14.63a4.52,4.52,0,0,1-.56.77,2.94,2.94,0,0,1-.63.53,2.53,2.53,0,0,1-.72.3,3.53,3.53,0,0,1-.84.1,2.74,2.74,0,0,1-2.09-.84,3.14,3.14,0,0,1-.79-2.23,3.22,3.22,0,0,1,.76-2.23,2.64,2.64,0,0,1,2-.84,2.61,2.61,0,0,1,2,.82,3.22,3.22,0,0,1,.74,2.25ZM13,19A1.29,1.29,0,0,0,11.69,18a1.39,1.39,0,0,0-.46.07,1.32,1.32,0,0,0-.39.21,1.36,1.36,0,0,0-.3.34,1.56,1.56,0,0,0-.19.45Z"/><path class="cls-1" d="M15.92,16.91h1.35v.54a2.2,2.2,0,0,1,1.59-.7,2,2,0,0,1,1.58.64,2.62,2.62,0,0,1,.49,1.77v3.57H19.58V19.48a2.13,2.13,0,0,0-.24-1.19,1,1,0,0,0-.85-.33,1,1,0,0,0-.95.44,3,3,0,0,0-.27,1.52v2.81H15.92Z"/><path class="cls-1" d="M24,18.16v4.56H22.67V18.16h-.57V16.91h.57V14.78H24v2.13h1v1.25Z"/><path class="cls-1" d="M26,16.91h1.34v.52a2.58,2.58,0,0,1,.66-.53,1.51,1.51,0,0,1,.69-.15,2.17,2.17,0,0,1,1.11.35l-.62,1.23a1.28,1.28,0,0,0-.75-.27q-1.1,0-1.1,1.66v3H26Z"/><path class="cls-1" d="M35.76,20.14H31.59a1.77,1.77,0,0,0,.47,1.14,1.42,1.42,0,0,0,1.06.42,1.38,1.38,0,0,0,.83-.24,3.4,3.4,0,0,0,.73-.88l1.14.63a4.52,4.52,0,0,1-.56.77,2.94,2.94,0,0,1-.63.53,2.53,2.53,0,0,1-.72.3,3.53,3.53,0,0,1-.84.1A2.74,2.74,0,0,1,31,22.06a3.14,3.14,0,0,1-.79-2.23A3.22,3.22,0,0,1,31,17.59a2.91,2.91,0,0,1,4.07,0,3.22,3.22,0,0,1,.74,2.25ZM34.38,19A1.29,1.29,0,0,0,33,18a1.39,1.39,0,0,0-.46.07,1.32,1.32,0,0,0-.39.21,1.36,1.36,0,0,0-.3.34,1.56,1.56,0,0,0-.19.45Z"/><path class="cls-1" d="M42.38,18.16v4.56H41V18.16h-.48V16.91H41V14.66a2.44,2.44,0,0,1,.38-1.55,1.87,1.87,0,0,1,1.53-.63,2.63,2.63,0,0,1,.9.21v1.37L43.7,14a1.69,1.69,0,0,0-.72-.22.49.49,0,0,0-.48.26,2.48,2.48,0,0,0-.13,1v1.92h1.46v1.25Z"/><path class="cls-1" d="M44.49,19.78a2.89,2.89,0,0,1,.9-2.15,3.18,3.18,0,0,1,4.41,0,3.12,3.12,0,0,1,0,4.38,3.08,3.08,0,0,1-2.23.88,3,3,0,0,1-2.19-.9A3,3,0,0,1,44.49,19.78Zm1.37,0a2,2,0,0,0,.47,1.38,1.81,1.81,0,0,0,2.52,0,2.19,2.19,0,0,0,0-2.71,1.79,1.79,0,0,0-2.51,0A1.87,1.87,0,0,0,45.87,19.8Z"/><path class="cls-1" d="M52.12,16.91h1.34v.52a2.58,2.58,0,0,1,.66-.53,1.51,1.51,0,0,1,.69-.15,2.17,2.17,0,0,1,1.11.35l-.62,1.23a1.28,1.28,0,0,0-.75-.27q-1.1,0-1.1,1.66v3H52.12Z"/><path class="cls-1" d="M62.12,13.5v9.22H60.73V13.5Z"/><path class="cls-1" d="M64.08,16.91h1.35v.54a2.2,2.2,0,0,1,1.59-.7,2,2,0,0,1,1.58.64,2.62,2.62,0,0,1,.49,1.77v3.57H67.75V19.48a2.13,2.13,0,0,0-.24-1.19,1,1,0,0,0-.85-.33,1,1,0,0,0-.95.44,3,3,0,0,0-.27,1.52v2.81H64.08Z"/><path class="cls-1" d="M72.18,18.16v4.56H70.83V18.16h-.57V16.91h.57V14.78h1.34v2.13h1v1.25Z"/><path class="cls-1" d="M79.54,20.14H75.37a1.77,1.77,0,0,0,.47,1.14,1.42,1.42,0,0,0,1.06.42,1.38,1.38,0,0,0,.83-.24,3.4,3.4,0,0,0,.73-.88l1.14.63A4.52,4.52,0,0,1,79,22a2.94,2.94,0,0,1-.63.53,2.53,2.53,0,0,1-.72.3,3.53,3.53,0,0,1-.84.1,2.74,2.74,0,0,1-2.09-.84A3.14,3.14,0,0,1,74,19.83a3.22,3.22,0,0,1,.76-2.23,2.91,2.91,0,0,1,4.07,0,3.22,3.22,0,0,1,.74,2.25ZM78.16,19A1.29,1.29,0,0,0,76.81,18a1.39,1.39,0,0,0-.46.07,1.32,1.32,0,0,0-.39.21,1.36,1.36,0,0,0-.3.34,1.56,1.56,0,0,0-.19.45Z"/><path class="cls-1" d="M81,16.91h1.34v.52A2.58,2.58,0,0,1,83,16.9a1.51,1.51,0,0,1,.69-.15,2.17,2.17,0,0,1,1.11.35l-.62,1.23a1.28,1.28,0,0,0-.75-.27q-1.1,0-1.1,1.66v3H81Z"/><path class="cls-1" d="M86,16.91h1.35v.54a2.2,2.2,0,0,1,1.59-.7,2,2,0,0,1,1.58.64A2.62,2.62,0,0,1,91,19.16v3.57H89.67V19.48a2.13,2.13,0,0,0-.24-1.19,1,1,0,0,0-.85-.33,1,1,0,0,0-.95.44,3,3,0,0,0-.27,1.52v2.81H86Z"/><path class="cls-1" d="M96.77,16.91h1.35v5.82H96.77v-.61A2.58,2.58,0,0,1,93,22a3.24,3.24,0,0,1-.78-2.22A3.14,3.14,0,0,1,93,17.62a2.52,2.52,0,0,1,2-.87,2.48,2.48,0,0,1,1.82.84ZM93.58,19.8A2,2,0,0,0,94,21.16a1.47,1.47,0,0,0,1.16.53,1.54,1.54,0,0,0,1.21-.51,2.21,2.21,0,0,0,0-2.7A1.52,1.52,0,0,0,95.2,18a1.49,1.49,0,0,0-1.16.53A1.94,1.94,0,0,0,93.58,19.8Z"/><path class="cls-1" d="M101.3,18.16v4.56H100V18.16h-.57V16.91H100V14.78h1.34v2.13h1v1.25Z"/><path class="cls-1" d="M103.29,14.49a.88.88,0,0,1,.87-.87.85.85,0,0,1,.62.26.83.83,0,0,1,.26.62.85.85,0,0,1-.26.62.83.83,0,0,1-.62.26.84.84,0,0,1-.62-.26A.85.85,0,0,1,103.29,14.49Zm1.55,2.42v5.82h-1.34V16.91Z"/><path class="cls-1" d="M106,19.78a2.89,2.89,0,0,1,.9-2.15,3.18,3.18,0,0,1,4.41,0,3.12,3.12,0,0,1,0,4.38,3.08,3.08,0,0,1-2.23.88,3,3,0,0,1-2.19-.9A3,3,0,0,1,106,19.78Zm1.37,0a2,2,0,0,0,.47,1.38,1.81,1.81,0,0,0,2.52,0,2.19,2.19,0,0,0,0-2.71,1.79,1.79,0,0,0-2.51,0A1.87,1.87,0,0,0,107.41,19.8Z"/><path class="cls-1" d="M113.57,16.91h1.35v.54a2.2,2.2,0,0,1,1.59-.7,2,2,0,0,1,1.58.64,2.62,2.62,0,0,1,.49,1.77v3.57h-1.35V19.48a2.13,2.13,0,0,0-.24-1.19,1,1,0,0,0-.85-.33,1,1,0,0,0-.95.44,3,3,0,0,0-.27,1.52v2.81h-1.35Z"/><path class="cls-1" d="M124.57,16.91h1.35v5.82h-1.35v-.61a2.58,2.58,0,0,1-3.78-.1A3.24,3.24,0,0,1,120,19.8a3.14,3.14,0,0,1,.78-2.18,2.52,2.52,0,0,1,2-.87,2.48,2.48,0,0,1,1.82.84Zm-3.19,2.89a2,2,0,0,0,.45,1.36,1.47,1.47,0,0,0,1.16.53,1.54,1.54,0,0,0,1.21-.51,2.21,2.21,0,0,0,0-2.7A1.52,1.52,0,0,0,123,18a1.49,1.49,0,0,0-1.16.53A1.94,1.94,0,0,0,121.38,19.8Z"/><path class="cls-1" d="M129,12.64V22.73h-1.34V12.64Z"/><path class="cls-1" d="M5.55,32.61H9.36v.3a6.29,6.29,0,0,1-.25,1.84,3.91,3.91,0,0,1-.81,1.39A4.18,4.18,0,0,1,5,37.58a4.49,4.49,0,0,1-3.32-1.4,4.82,4.82,0,0,1,0-6.77A4.65,4.65,0,0,1,5.17,28a4.67,4.67,0,0,1,2,.44A5.82,5.82,0,0,1,9,29.88l-1,1a3.37,3.37,0,0,0-2.77-1.51,3.3,3.3,0,0,0-2.46,1,3.37,3.37,0,0,0-1,2.49,3.27,3.27,0,0,0,1.1,2.54,3.3,3.3,0,0,0,2.24.93,2.78,2.78,0,0,0,1.85-.69,2.46,2.46,0,0,0,.91-1.67H5.55Z"/><path class="cls-1" d="M10.58,34.46a2.89,2.89,0,0,1,.9-2.15,3.18,3.18,0,0,1,4.41,0,3.12,3.12,0,0,1,0,4.38,3.08,3.08,0,0,1-2.23.88,3,3,0,0,1-2.19-.9A3,3,0,0,1,10.58,34.46Zm1.37,0a2,2,0,0,0,.47,1.38,1.64,1.64,0,0,0,1.26.51,1.64,1.64,0,0,0,1.26-.51,2.19,2.19,0,0,0,0-2.71,1.79,1.79,0,0,0-2.51,0A1.87,1.87,0,0,0,12,34.48Z"/><path class="cls-1" d="M18.69,31.59l1.51,3.27,1.5-3.27h1.51l-3,6.22-3-6.22Z"/><path class="cls-1" d="M29.2,34.82H25A1.77,1.77,0,0,0,25.5,36a1.42,1.42,0,0,0,1.06.42,1.38,1.38,0,0,0,.83-.24,3.4,3.4,0,0,0,.73-.88l1.14.63a4.52,4.52,0,0,1-.56.77,2.94,2.94,0,0,1-.63.53,2.53,2.53,0,0,1-.72.3,3.53,3.53,0,0,1-.84.1,2.74,2.74,0,0,1-2.09-.84,3.14,3.14,0,0,1-.79-2.23,3.22,3.22,0,0,1,.76-2.23,2.91,2.91,0,0,1,4.07,0,3.22,3.22,0,0,1,.74,2.25Zm-1.38-1.1a1.29,1.29,0,0,0-1.36-1.08,1.39,1.39,0,0,0-.46.07,1.32,1.32,0,0,0-.39.21,1.36,1.36,0,0,0-.3.34,1.56,1.56,0,0,0-.19.45Z"/><path class="cls-1" d="M30.67,31.59H32v.52a2.58,2.58,0,0,1,.66-.53,1.51,1.51,0,0,1,.69-.15,2.17,2.17,0,0,1,1.11.35L33.86,33a1.28,1.28,0,0,0-.75-.27q-1.1,0-1.1,1.66v3H30.67Z"/><path class="cls-1" d="M35.43,31.59h1.35v.54a2.2,2.2,0,0,1,1.59-.7,2,2,0,0,1,1.58.64,2.62,2.62,0,0,1,.49,1.77v3.57H39.1V34.16A2.13,2.13,0,0,0,38.86,33a1,1,0,0,0-.85-.33,1,1,0,0,0-.95.44,3,3,0,0,0-.27,1.52v2.81H35.43Z"/><path class="cls-1" d="M46.43,31.59h1.35v5.82H46.43V36.8a2.58,2.58,0,0,1-3.78-.1,3.24,3.24,0,0,1-.78-2.22,3.14,3.14,0,0,1,.78-2.18,2.52,2.52,0,0,1,2-.87,2.48,2.48,0,0,1,1.82.84Zm-3.19,2.89a2,2,0,0,0,.45,1.36,1.47,1.47,0,0,0,1.16.53,1.54,1.54,0,0,0,1.21-.51,2.21,2.21,0,0,0,0-2.7,1.52,1.52,0,0,0-1.19-.52,1.49,1.49,0,0,0-1.16.53A1.94,1.94,0,0,0,43.24,34.48Z"/><path class="cls-1" d="M49.48,31.59h1.35v.54a2.2,2.2,0,0,1,1.59-.7,2,2,0,0,1,1.58.64,2.62,2.62,0,0,1,.49,1.77v3.57H53.14V34.16A2.13,2.13,0,0,0,52.9,33a1,1,0,0,0-.85-.33,1,1,0,0,0-.95.44,3,3,0,0,0-.27,1.52v2.81H49.48Z"/><path class="cls-1" d="M60.72,31.84v1.79a3.28,3.28,0,0,0-.82-.77,1.61,1.61,0,0,0-.84-.21,1.66,1.66,0,0,0-1.26.53,1.86,1.86,0,0,0-.5,1.33,1.91,1.91,0,0,0,.48,1.34,1.63,1.63,0,0,0,1.25.53,1.71,1.71,0,0,0,.85-.21,3.39,3.39,0,0,0,.84-.79v1.77a3.53,3.53,0,0,1-1.64.42,3.13,3.13,0,0,1-2.26-.87,2.91,2.91,0,0,1-.91-2.18,3,3,0,0,1,.92-2.2,3.11,3.11,0,0,1,2.26-.9A3.38,3.38,0,0,1,60.72,31.84Z"/><path class="cls-1" d="M67.7,34.82H63.53A1.77,1.77,0,0,0,64,36a1.42,1.42,0,0,0,1.06.42,1.38,1.38,0,0,0,.83-.24,3.4,3.4,0,0,0,.73-.88l1.14.63a4.52,4.52,0,0,1-.56.77,2.94,2.94,0,0,1-.63.53,2.53,2.53,0,0,1-.72.3,3.53,3.53,0,0,1-.84.1,2.74,2.74,0,0,1-2.09-.84,3.14,3.14,0,0,1-.79-2.23,3.22,3.22,0,0,1,.76-2.23,2.91,2.91,0,0,1,4.07,0,3.22,3.22,0,0,1,.74,2.25Zm-1.38-1.1A1.29,1.29,0,0,0,65,32.64a1.39,1.39,0,0,0-.46.07,1.32,1.32,0,0,0-.39.21,1.36,1.36,0,0,0-.3.34,1.56,1.56,0,0,0-.19.45Z"/><path class="cls-1" d="M74.76,28.19v9.22H73.37V28.19Z"/><path class="cls-1" d="M76.71,31.59h1.35v.54a2.2,2.2,0,0,1,1.59-.7,2,2,0,0,1,1.58.64,2.62,2.62,0,0,1,.49,1.77v3.57H80.37V34.16A2.13,2.13,0,0,0,80.13,33a1,1,0,0,0-.85-.33,1,1,0,0,0-.95.44,3,3,0,0,0-.27,1.52v2.81H76.71Z"/><path class="cls-1" d="M83.32,31.59h1.35v.54a2.2,2.2,0,0,1,1.59-.7,2,2,0,0,1,1.58.64,2.62,2.62,0,0,1,.49,1.77v3.57H87V34.16A2.13,2.13,0,0,0,86.75,33a1,1,0,0,0-.85-.33,1,1,0,0,0-.95.44,3,3,0,0,0-.27,1.52v2.81H83.32Z"/><path class="cls-1" d="M89.54,34.46a2.89,2.89,0,0,1,.9-2.15,3.18,3.18,0,0,1,4.41,0,3.12,3.12,0,0,1,0,4.38,3.08,3.08,0,0,1-2.23.88,3,3,0,0,1-2.19-.9A3,3,0,0,1,89.54,34.46Zm1.37,0a2,2,0,0,0,.47,1.38,1.81,1.81,0,0,0,2.52,0,2.19,2.19,0,0,0,0-2.71,1.79,1.79,0,0,0-2.51,0A1.87,1.87,0,0,0,90.91,34.48Z"/><path class="cls-1" d="M97.62,31.59l1.51,3.27,1.5-3.27h1.51l-3,6.22-3-6.22Z"/><path class="cls-1" d="M107.18,31.59h1.35v5.82h-1.35V36.8a2.58,2.58,0,0,1-3.78-.1,3.24,3.24,0,0,1-.78-2.22,3.14,3.14,0,0,1,.78-2.18,2.52,2.52,0,0,1,2-.87,2.48,2.48,0,0,1,1.82.84ZM104,34.48a2,2,0,0,0,.45,1.36,1.47,1.47,0,0,0,1.16.53,1.54,1.54,0,0,0,1.21-.51,2.21,2.21,0,0,0,0-2.7,1.52,1.52,0,0,0-1.19-.52,1.49,1.49,0,0,0-1.16.53A1.94,1.94,0,0,0,104,34.48Z"/><path class="cls-1" d="M111.71,32.85v4.56h-1.34V32.85h-.57V31.59h.57V29.46h1.34v2.13h1v1.25Z"/><path class="cls-1" d="M113.76,29.17a.88.88,0,0,1,.87-.87.85.85,0,0,1,.62.26.83.83,0,0,1,.26.62.85.85,0,0,1-.26.62.83.83,0,0,1-.62.26.84.84,0,0,1-.62-.26A.85.85,0,0,1,113.76,29.17Zm1.55,2.42v5.82H114V31.59Z"/><path class="cls-1" d="M116.52,34.46a2.89,2.89,0,0,1,.9-2.15,3.18,3.18,0,0,1,4.41,0,3.12,3.12,0,0,1,0,4.38,3.08,3.08,0,0,1-2.23.88,3,3,0,0,1-2.19-.9A3,3,0,0,1,116.52,34.46Zm1.37,0a2,2,0,0,0,.47,1.38,1.81,1.81,0,0,0,2.52,0,2.19,2.19,0,0,0,0-2.71,1.79,1.79,0,0,0-2.51,0A1.87,1.87,0,0,0,117.89,34.48Z"/><path class="cls-1" d="M124.07,31.59h1.35v.54a2.2,2.2,0,0,1,1.59-.7,2,2,0,0,1,1.58.64,2.62,2.62,0,0,1,.49,1.77v3.57h-1.35V34.16a2.13,2.13,0,0,0-.24-1.19,1,1,0,0,0-.85-.33,1,1,0,0,0-.95.44,3,3,0,0,0-.27,1.52v2.81h-1.35Z"/><rect class="cls-1" width="129.38" height="3.59"/></svg>