<?xml version="1.0" encoding="utf-8"?>
<!-- Generator: Adobe Illustrator 22.0.1, SVG Export Plug-In . SVG Version: 6.00 Build 0)  -->
<svg version="1.1" id="Layer_1" xmlns="http://www.w3.org/2000/svg" xmlns:xlink="http://www.w3.org/1999/xlink" x="0px" y="0px"
	 viewBox="0 0 129.4 37.8" style="enable-background:new 0 0 129.4 37.8;" xml:space="preserve">
<style type="text/css">
	.st0{fill:#231F20;}
</style>
<title>CIGI-logo-full-CMYK-th</title>
<path class="st0" d="M7.6,14v1.6c-0.7-0.6-1.6-1-2.5-1c-0.9,0-1.8,0.3-2.4,1c-0.7,0.7-1,1.6-1,2.5c0,0.9,0.3,1.8,1,2.5
	c0.6,0.7,1.5,1,2.4,1c0.4,0,0.9-0.1,1.2-0.2C6.6,21.3,6.8,21.1,7,21c0.2-0.2,0.4-0.3,0.7-0.5v1.7c-0.8,0.4-1.6,0.7-2.5,0.7
	c-1.3,0-2.5-0.5-3.4-1.4c-0.9-0.9-1.4-2.1-1.4-3.3c0-1.2,0.4-2.3,1.2-3.2c0.9-1.1,2.3-1.7,3.7-1.7C6.1,13.3,6.9,13.6,7.6,14z"/>
<path class="st0" d="M14.4,20.1h-4.2c0,0.4,0.2,0.8,0.5,1.1c0.3,0.3,0.7,0.4,1.1,0.4c0.3,0,0.6-0.1,0.8-0.2c0.3-0.3,0.5-0.5,0.7-0.9
	l1.1,0.6c-0.2,0.3-0.3,0.5-0.6,0.8c-0.2,0.2-0.4,0.4-0.6,0.5c-0.2,0.1-0.5,0.2-0.7,0.3c-0.3,0.1-0.6,0.1-0.8,0.1
	c-0.8,0-1.5-0.3-2.1-0.8c-0.5-0.6-0.8-1.4-0.8-2.2c0-0.8,0.2-1.6,0.8-2.2c0.5-0.6,1.2-0.9,2-0.8c0.8,0,1.5,0.3,2,0.8
	c0.5,0.6,0.8,1.4,0.7,2.2L14.4,20.1z M13,19c-0.1-0.6-0.7-1-1.3-1c-0.2,0-0.3,0-0.5,0.1c-0.1,0-0.3,0.1-0.4,0.2
	c-0.1,0.1-0.2,0.2-0.3,0.3c-0.1,0.1-0.2,0.3-0.2,0.5L13,19z"/>
<path class="st0" d="M15.9,16.9h1.4v0.5c0.4-0.4,1-0.7,1.6-0.7c0.6,0,1.2,0.2,1.6,0.6c0.4,0.5,0.5,1.1,0.5,1.8v3.6h-1.4v-3.2
	c0-0.4,0-0.8-0.2-1.2c-0.2-0.2-0.5-0.4-0.9-0.3c-0.4,0-0.7,0.1-1,0.4c-0.2,0.5-0.3,1-0.3,1.5v2.8h-1.3V16.9z"/>
<path class="st0" d="M24,18.2v4.6h-1.3v-4.6h-0.6v-1.2h0.6v-2.1H24v2.1h1v1.2H24z"/>
<path class="st0" d="M26,16.9h1.3v0.5c0.2-0.2,0.4-0.4,0.7-0.5c0.2-0.1,0.5-0.2,0.7-0.1c0.4,0,0.8,0.1,1.1,0.4l-0.6,1.2
	c-0.2-0.2-0.5-0.3-0.8-0.3c-0.7,0-1.1,0.6-1.1,1.7v3H26V16.9z"/>
<path class="st0" d="M35.8,20.1h-4.2c0,0.4,0.2,0.8,0.5,1.1c0.3,0.3,0.7,0.4,1.1,0.4c0.3,0,0.6-0.1,0.8-0.2c0.3-0.3,0.5-0.5,0.7-0.9
	l1.1,0.6c-0.2,0.3-0.3,0.5-0.6,0.8c-0.2,0.2-0.4,0.4-0.6,0.5c-0.2,0.1-0.5,0.2-0.7,0.3c-0.3,0.1-0.6,0.1-0.8,0.1
	c-0.8,0-1.5-0.3-2.1-0.9c-0.5-0.6-0.8-1.4-0.8-2.2c0-0.8,0.3-1.6,0.8-2.2c1.1-1.1,2.9-1.1,4.1,0c0.5,0.6,0.8,1.4,0.7,2.2L35.8,20.1z
	 M34.4,19c-0.1-0.6-0.7-1.1-1.4-1c-0.2,0-0.3,0-0.5,0.1c-0.1,0-0.3,0.1-0.4,0.2c-0.1,0.1-0.2,0.2-0.3,0.3c-0.1,0.1-0.2,0.3-0.2,0.5
	L34.4,19z"/>
<path class="st0" d="M42.4,18.2v4.6H41v-4.6h-0.5v-1.2H41v-2.2c-0.1-0.5,0.1-1.1,0.4-1.6c0.4-0.4,0.9-0.7,1.5-0.6
	c0.3,0,0.6,0.1,0.9,0.2v1.4L43.7,14c-0.2-0.1-0.5-0.2-0.7-0.2c-0.2,0-0.4,0.1-0.5,0.3c-0.1,0.3-0.2,0.7-0.1,1V17h1.5v1.2L42.4,18.2z
	"/>
<path class="st0" d="M44.5,19.8c0-0.8,0.3-1.6,0.9-2.1c1.2-1.2,3.2-1.2,4.4,0c1.2,1.2,1.2,3.2,0,4.4c-0.6,0.6-1.4,0.9-2.2,0.9
	c-0.8,0-1.6-0.3-2.2-0.9C44.8,21.4,44.5,20.6,44.5,19.8z M45.9,19.8c0,0.5,0.1,1,0.5,1.4c0.7,0.7,1.8,0.7,2.5,0
	c0.6-0.8,0.6-1.9,0-2.7c-0.7-0.7-1.8-0.7-2.5,0C46,18.8,45.8,19.3,45.9,19.8L45.9,19.8z"/>
<path class="st0" d="M52.1,16.9h1.3v0.5c0.2-0.2,0.4-0.4,0.7-0.5c0.2-0.1,0.5-0.2,0.7-0.1c0.4,0,0.8,0.1,1.1,0.4l-0.6,1.2
	c-0.2-0.2-0.5-0.3-0.8-0.3c-0.7,0-1.1,0.6-1.1,1.7v3h-1.3V16.9z"/>
<path class="st0" d="M62.1,13.5v9.2h-1.4v-9.2H62.1z"/>
<path class="st0" d="M64.1,16.9h1.3v0.5c0.4-0.4,1-0.7,1.6-0.7c0.6,0,1.2,0.2,1.6,0.6c0.4,0.5,0.5,1.1,0.5,1.8v3.6h-1.3v-3.2
	c0-0.4,0-0.8-0.2-1.2C67.3,18,67,17.9,66.7,18c-0.4,0-0.7,0.1-0.9,0.4c-0.2,0.5-0.3,1-0.3,1.5v2.8h-1.4V16.9z"/>
<path class="st0" d="M72.2,18.2v4.6h-1.3v-4.6h-0.6v-1.2h0.6v-2.1h1.3v2.1h1v1.2H72.2z"/>
<path class="st0" d="M79.5,20.1h-4.2c0,0.4,0.2,0.8,0.5,1.1c0.3,0.3,0.7,0.4,1.1,0.4c0.3,0,0.6-0.1,0.8-0.2c0.3-0.3,0.5-0.5,0.7-0.9
	l1.1,0.6c-0.2,0.3-0.4,0.5-0.6,0.8c-0.2,0.2-0.4,0.4-0.6,0.5c-0.2,0.1-0.5,0.2-0.7,0.3c-0.3,0.1-0.6,0.1-0.8,0.1
	c-0.8,0-1.5-0.3-2.1-0.8c-0.5-0.6-0.8-1.4-0.7-2.3c0-0.8,0.2-1.6,0.8-2.2c1.1-1.1,2.9-1.1,4.1,0c0.5,0.6,0.8,1.4,0.7,2.2L79.5,20.1z
	 M78.2,19c-0.1-0.6-0.7-1-1.4-1c-0.2,0-0.3,0-0.5,0.1c-0.1,0-0.3,0.1-0.4,0.2c-0.1,0.1-0.2,0.2-0.3,0.3c-0.1,0.1-0.2,0.3-0.2,0.5
	L78.2,19z"/>
<path class="st0" d="M81,16.9h1.3v0.5c0.2-0.2,0.4-0.4,0.7-0.5c0.2-0.1,0.5-0.2,0.7-0.1c0.4,0,0.8,0.1,1.1,0.4l-0.6,1.2
	c-0.2-0.2-0.5-0.3-0.8-0.3c-0.7,0-1.1,0.6-1.1,1.7v3H81V16.9z"/>
<path class="st0" d="M86,16.9h1.3v0.5c0.4-0.4,1-0.7,1.6-0.7c0.6,0,1.2,0.2,1.6,0.6c0.4,0.5,0.5,1.1,0.5,1.8v3.6h-1.3v-3.2
	c0-0.4,0-0.8-0.2-1.2c-0.2-0.2-0.5-0.4-0.8-0.3c-0.4,0-0.7,0.1-0.9,0.4c-0.2,0.5-0.3,1-0.3,1.5v2.8H86V16.9z"/>
<path class="st0" d="M96.8,16.9h1.3v5.8h-1.3v-0.6c-1,1-2.6,1-3.6,0c0,0-0.1-0.1-0.1-0.1c-0.5-0.6-0.8-1.4-0.8-2.2
	c0-0.8,0.3-1.6,0.8-2.2c0.5-0.6,1.2-0.9,2-0.9c0.7,0,1.4,0.3,1.8,0.8L96.8,16.9z M93.6,19.8c0,0.5,0.1,1,0.4,1.4
	c0.3,0.3,0.7,0.5,1.2,0.5c0.5,0,0.9-0.2,1.2-0.5c0.6-0.8,0.6-1.9,0-2.7c-0.3-0.3-0.7-0.5-1.2-0.5c-0.4,0-0.9,0.2-1.2,0.5
	C93.7,18.9,93.6,19.3,93.6,19.8z"/>
<path class="st0" d="M101.3,18.2v4.6H100v-4.6h-0.6v-1.2h0.6v-2.1h1.3v2.1h1v1.2H101.3z"/>
<path class="st0" d="M103.3,14.5c0-0.5,0.4-0.9,0.9-0.9c0.2,0,0.5,0.1,0.6,0.3c0.2,0.2,0.3,0.4,0.3,0.6c0,0.2-0.1,0.5-0.3,0.6
	c-0.2,0.2-0.4,0.3-0.6,0.3c-0.2,0-0.5-0.1-0.6-0.3C103.4,15,103.3,14.7,103.3,14.5z M104.8,16.9v5.8h-1.3v-5.8H104.8z"/>
<path class="st0" d="M106,19.8c0-0.8,0.3-1.6,0.9-2.1c1.2-1.2,3.2-1.2,4.4,0c1.2,1.2,1.2,3.2,0,4.4c-0.6,0.6-1.4,0.9-2.2,0.9
	c-0.8,0-1.6-0.3-2.2-0.9C106.3,21.4,106,20.6,106,19.8z M107.4,19.8c0,0.5,0.1,1,0.5,1.4c0.7,0.7,1.8,0.7,2.5,0
	c0.6-0.8,0.6-1.9,0-2.7c-0.7-0.7-1.8-0.7-2.5,0C107.5,18.8,107.4,19.3,107.4,19.8L107.4,19.8z"/>
<path class="st0" d="M113.6,16.9h1.3v0.5c0.4-0.4,1-0.7,1.6-0.7c0.6,0,1.2,0.2,1.6,0.6c0.4,0.5,0.5,1.1,0.5,1.8v3.6h-1.3v-3.2
	c0-0.4,0-0.8-0.2-1.2c-0.2-0.2-0.5-0.4-0.8-0.3c-0.4,0-0.7,0.1-0.9,0.4c-0.2,0.5-0.3,1-0.3,1.5v2.8h-1.3L113.6,16.9z"/>
<path class="st0" d="M124.6,16.9h1.3v5.8h-1.3v-0.6c-1,1-2.6,1-3.6,0c0,0-0.1-0.1-0.1-0.1c-0.5-0.6-0.8-1.4-0.8-2.2
	c0-0.8,0.3-1.6,0.8-2.2c0.5-0.6,1.2-0.9,2-0.9c0.7,0,1.4,0.3,1.8,0.8L124.6,16.9z M121.4,19.8c0,0.5,0.1,1,0.4,1.4
	c0.3,0.3,0.7,0.5,1.2,0.5c0.5,0,0.9-0.2,1.2-0.5c0.6-0.8,0.6-1.9,0-2.7c-0.3-0.3-0.7-0.5-1.2-0.5c-0.4,0-0.9,0.2-1.2,0.5
	C121.5,18.9,121.4,19.3,121.4,19.8z"/>
<path class="st0" d="M129,12.6v10.1h-1.3V12.6H129z"/>
<path class="st0" d="M5.6,32.6h3.8v0.3c0,0.6-0.1,1.2-0.2,1.8c-0.2,0.5-0.4,1-0.8,1.4c-0.8,1-2,1.5-3.3,1.4c-1.3,0-2.5-0.5-3.3-1.4
	c-1.9-1.9-1.9-4.9,0-6.8C2.6,28.5,3.9,28,5.2,28c0.7,0,1.4,0.1,2,0.4c0.7,0.4,1.3,0.8,1.8,1.4l-1,1c-0.6-0.9-1.7-1.5-2.8-1.5
	c-0.9,0-1.8,0.3-2.5,1c-0.7,0.7-1,1.6-1,2.5c0,1,0.4,1.9,1.1,2.5c0.6,0.6,1.4,0.9,2.2,0.9c0.7,0,1.3-0.2,1.8-0.7
	c0.5-0.4,0.8-1,0.9-1.7H5.6V32.6z"/>
<path class="st0" d="M10.6,34.5c0-0.8,0.3-1.6,0.9-2.2c1.2-1.2,3.2-1.2,4.4,0c1.2,1.2,1.2,3.2,0,4.4c-0.6,0.6-1.4,0.9-2.2,0.9
	c-0.8,0-1.6-0.3-2.2-0.9C10.9,36.1,10.6,35.3,10.6,34.5z M11.9,34.5c0,0.5,0.1,1,0.5,1.4c0.3,0.3,0.8,0.5,1.3,0.5
	c0.5,0,0.9-0.2,1.3-0.5c0.6-0.8,0.6-1.9,0-2.7c-0.7-0.7-1.8-0.7-2.5,0C12.1,33.5,12,34,11.9,34.5L11.9,34.5z"/>
<path class="st0" d="M18.7,31.6l1.5,3.3l1.5-3.3h1.5l-3,6.2l-3-6.2L18.7,31.6z"/>
<path class="st0" d="M29.2,34.8H25c0,0.4,0.2,0.9,0.5,1.2c0.3,0.3,0.7,0.4,1.1,0.4c0.3,0,0.6-0.1,0.8-0.2c0.3-0.3,0.5-0.5,0.7-0.9
	l1.1,0.6c-0.2,0.3-0.3,0.5-0.6,0.8c-0.2,0.2-0.4,0.4-0.6,0.5c-0.2,0.1-0.5,0.2-0.7,0.3c-0.3,0.1-0.6,0.1-0.8,0.1
	c-0.8,0-1.5-0.3-2.1-0.8c-0.5-0.6-0.8-1.4-0.8-2.2c0-0.8,0.2-1.6,0.8-2.2c1.1-1.1,2.9-1.1,4.1,0c0.5,0.6,0.8,1.4,0.7,2.2L29.2,34.8z
	 M27.8,33.7c-0.1-0.7-0.7-1.1-1.4-1.1c-0.2,0-0.3,0-0.5,0.1c-0.1,0-0.3,0.1-0.4,0.2c-0.1,0.1-0.2,0.2-0.3,0.3
	c-0.1,0.1-0.2,0.3-0.2,0.5L27.8,33.7z"/>
<path class="st0" d="M30.7,31.6H32v0.5c0.2-0.2,0.4-0.4,0.7-0.5c0.2-0.1,0.5-0.2,0.7-0.1c0.4,0,0.8,0.1,1.1,0.4L33.9,33
	c-0.2-0.2-0.5-0.3-0.8-0.3c-0.7,0-1.1,0.6-1.1,1.7v3h-1.3V31.6z"/>
<path class="st0" d="M35.4,31.6h1.3v0.5c0.4-0.4,1-0.7,1.6-0.7c0.6,0,1.2,0.2,1.6,0.6c0.4,0.5,0.5,1.1,0.5,1.8v3.6h-1.3v-3.2
	c0-0.4-0.1-0.8-0.2-1.2c-0.2-0.2-0.5-0.4-0.8-0.3c-0.4,0-0.7,0.1-1,0.4c-0.2,0.5-0.3,1-0.3,1.5v2.8h-1.4V31.6z"/>
<path class="st0" d="M46.4,31.6h1.3v5.8h-1.3v-0.6c-1,1-2.6,1-3.6,0c0,0-0.1-0.1-0.1-0.1c-0.5-0.6-0.8-1.4-0.8-2.2
	c0-0.8,0.3-1.6,0.8-2.2c0.5-0.6,1.2-0.9,2-0.9c0.7,0,1.4,0.3,1.8,0.8L46.4,31.6z M43.2,34.5c0,0.5,0.1,1,0.5,1.4
	c0.3,0.3,0.7,0.5,1.2,0.5c0.5,0,0.9-0.2,1.2-0.5c0.6-0.8,0.6-1.9,0-2.7c-0.3-0.3-0.7-0.5-1.2-0.5c-0.4,0-0.9,0.2-1.2,0.5
	C43.4,33.5,43.2,34,43.2,34.5z"/>
<path class="st0" d="M49.5,31.6h1.3v0.5c0.4-0.4,1-0.7,1.6-0.7c0.6,0,1.2,0.2,1.6,0.6c0.4,0.5,0.5,1.1,0.5,1.8v3.6h-1.4v-3.2
	c0-0.4-0.1-0.8-0.2-1.2c-0.2-0.2-0.5-0.4-0.8-0.3c-0.4,0-0.7,0.1-1,0.4c-0.2,0.5-0.3,1-0.3,1.5v2.8h-1.4V31.6z"/>
<path class="st0" d="M60.7,31.8v1.8c-0.2-0.3-0.5-0.6-0.8-0.8c-0.3-0.1-0.5-0.2-0.8-0.2c-0.5,0-0.9,0.2-1.3,0.5
	c-0.3,0.4-0.5,0.8-0.5,1.3c0,0.5,0.2,1,0.5,1.3c0.3,0.4,0.8,0.5,1.2,0.5c0.3,0,0.6-0.1,0.8-0.2c0.3-0.2,0.6-0.5,0.8-0.8v1.8
	c-0.5,0.3-1.1,0.4-1.6,0.4c-0.8,0-1.7-0.3-2.3-0.9c-0.6-0.6-0.9-1.4-0.9-2.2c0-0.8,0.3-1.6,0.9-2.2c0.6-0.6,1.4-0.9,2.3-0.9
	C59.7,31.4,60.2,31.6,60.7,31.8z"/>
<path class="st0" d="M67.7,34.8h-4.2c0,0.4,0.2,0.9,0.5,1.2c0.3,0.3,0.7,0.4,1.1,0.4c0.3,0,0.6-0.1,0.8-0.2c0.3-0.3,0.5-0.5,0.7-0.9
	l1.1,0.6c-0.2,0.3-0.3,0.5-0.6,0.8c-0.2,0.2-0.4,0.4-0.6,0.5c-0.2,0.1-0.5,0.2-0.7,0.3c-0.3,0.1-0.6,0.1-0.8,0.1
	c-0.8,0-1.5-0.3-2.1-0.8c-0.5-0.6-0.8-1.4-0.8-2.2c0-0.8,0.2-1.6,0.8-2.2c1.1-1.1,2.9-1.1,4.1,0c0.5,0.6,0.8,1.4,0.7,2.2L67.7,34.8z
	 M66.3,33.7c-0.1-0.6-0.7-1.1-1.3-1.1c-0.2,0-0.3,0-0.5,0.1c-0.1,0-0.3,0.1-0.4,0.2c-0.1,0.1-0.2,0.2-0.3,0.3
	c-0.1,0.1-0.2,0.3-0.2,0.5L66.3,33.7z"/>
<path class="st0" d="M74.8,28.2v9.2h-1.4v-9.2H74.8z"/>
<path class="st0" d="M76.7,31.6h1.3v0.5c0.4-0.4,1-0.7,1.6-0.7c0.6,0,1.2,0.2,1.6,0.6c0.4,0.5,0.5,1.1,0.5,1.8v3.6h-1.3v-3.2
	c0-0.4-0.1-0.8-0.2-1.2c-0.2-0.2-0.5-0.4-0.8-0.3c-0.4,0-0.7,0.1-0.9,0.4c-0.2,0.5-0.3,1-0.3,1.5v2.8h-1.4V31.6z"/>
<path class="st0" d="M83.3,31.6h1.3v0.5c0.4-0.4,1-0.7,1.6-0.7c0.6,0,1.2,0.2,1.6,0.6c0.4,0.5,0.5,1.1,0.5,1.8v3.6H87v-3.2
	c0-0.4-0.1-0.8-0.2-1.2c-0.2-0.2-0.5-0.4-0.8-0.3c-0.4,0-0.7,0.1-0.9,0.4c-0.2,0.5-0.3,1-0.3,1.5v2.8h-1.4V31.6z"/>
<path class="st0" d="M89.5,34.5c0-0.8,0.3-1.6,0.9-2.2c1.2-1.2,3.2-1.2,4.4,0c1.2,1.2,1.2,3.2,0,4.4c-0.6,0.6-1.4,0.9-2.2,0.9
	c-0.8,0-1.6-0.3-2.2-0.9C89.8,36.1,89.5,35.3,89.5,34.5z M90.9,34.5c0,0.5,0.1,1,0.5,1.4c0.7,0.7,1.8,0.7,2.5,0
	c0.6-0.8,0.6-1.9,0-2.7c-0.7-0.7-1.8-0.7-2.5,0C91.1,33.5,90.9,34,90.9,34.5L90.9,34.5z"/>
<path class="st0" d="M97.6,31.6l1.5,3.3l1.5-3.3h1.5l-3,6.2l-3-6.2L97.6,31.6z"/>
<path class="st0" d="M107.2,31.6h1.3v5.8h-1.3v-0.6c-1,1-2.6,1-3.6,0c0,0-0.1-0.1-0.1-0.1c-0.5-0.6-0.8-1.4-0.8-2.2
	c0-0.8,0.3-1.6,0.8-2.2c0.5-0.6,1.2-0.9,2-0.9c0.7,0,1.4,0.3,1.8,0.8L107.2,31.6z M104,34.5c0,0.5,0.1,1,0.4,1.4
	c0.3,0.3,0.7,0.5,1.2,0.5c0.5,0,0.9-0.2,1.2-0.5c0.6-0.8,0.6-1.9,0-2.7c-0.3-0.3-0.7-0.5-1.2-0.5c-0.4,0-0.9,0.2-1.2,0.5
	C104.2,33.5,104,34,104,34.5z"/>
<path class="st0" d="M111.7,32.8v4.6h-1.3v-4.6h-0.6v-1.3h0.6v-2.1h1.3v2.1h1v1.2L111.7,32.8z"/>
<path class="st0" d="M113.8,29.2c0-0.5,0.4-0.9,0.9-0.9c0.2,0,0.5,0.1,0.6,0.3c0.2,0.2,0.3,0.4,0.3,0.6c0,0.2-0.1,0.5-0.3,0.6
	c-0.2,0.2-0.4,0.3-0.6,0.3c-0.2,0-0.5-0.1-0.6-0.3C113.8,29.6,113.8,29.4,113.8,29.2z M115.3,31.6v5.8H114v-5.8H115.3z"/>
<path class="st0" d="M116.5,34.5c0-0.8,0.3-1.6,0.9-2.2c1.2-1.2,3.2-1.2,4.4,0c1.2,1.2,1.2,3.2,0,4.4c-0.6,0.6-1.4,0.9-2.2,0.9
	c-0.8,0-1.6-0.3-2.2-0.9C116.8,36.1,116.5,35.3,116.5,34.5z M117.9,34.5c0,0.5,0.1,1,0.5,1.4c0.7,0.7,1.8,0.7,2.5,0
	c0.6-0.8,0.6-1.9,0-2.7c-0.7-0.7-1.8-0.7-2.5,0C118,33.5,117.9,34,117.9,34.5L117.9,34.5z"/>
<path class="st0" d="M124.1,31.6h1.3v0.5c0.4-0.4,1-0.7,1.6-0.7c0.6,0,1.2,0.2,1.6,0.6c0.4,0.5,0.5,1.1,0.5,1.8v3.6h-1.3v-3.2
	c0-0.4,0-0.8-0.2-1.2c-0.2-0.2-0.5-0.4-0.8-0.3c-0.4,0-0.7,0.1-0.9,0.4c-0.2,0.5-0.3,1-0.3,1.5v2.8h-1.3L124.1,31.6z"/>
</svg>
