<?xml version="1.0" encoding="utf-8"?>
<!-- Generator: Adobe Illustrator 22.0.1, SVG Export Plug-In . SVG Version: 6.00 Build 0)  -->
<svg version="1.1" id="Layer_1" xmlns="http://www.w3.org/2000/svg" xmlns:xlink="http://www.w3.org/1999/xlink" x="0px" y="0px"
	 viewBox="0 0 129 26" style="enable-background:new 0 0 129 26;" xml:space="preserve">
<style type="text/css">
	.st0{fill:#231F20;}
</style>
<title>CIGI-logo-full-CMYK-th</title>
<path class="st0" d="M7.4,1.9v1.6c-0.7-0.6-1.6-1-2.5-1c-0.9,0-1.8,0.3-2.4,1c-0.7,0.7-1,1.6-1,2.5c0,0.9,0.3,1.8,1,2.5
	c0.6,0.7,1.5,1,2.4,1c0.4,0,0.9-0.1,1.2-0.2C6.4,9.1,6.6,9,6.8,8.9C7,8.7,7.3,8.5,7.5,8.4V10c-0.8,0.4-1.6,0.7-2.5,0.7
	c-1.3,0-2.5-0.5-3.4-1.4C0.7,8.5,0.2,7.3,0.2,6c0-1.2,0.4-2.3,1.2-3.2C2.2,1.8,3.6,1.1,5,1.2C5.9,1.2,6.7,1.4,7.4,1.9z"/>
<path class="st0" d="M14.2,8h-4.2c0,0.4,0.2,0.8,0.5,1.1c0.3,0.3,0.7,0.4,1.1,0.4c0.3,0,0.6-0.1,0.8-0.2c0.3-0.3,0.5-0.5,0.7-0.9
	l1.1,0.6c-0.2,0.3-0.3,0.5-0.6,0.8c-0.2,0.2-0.4,0.4-0.6,0.5c-0.2,0.1-0.5,0.2-0.7,0.3c-0.3,0.1-0.6,0.1-0.8,0.1
	c-0.8,0-1.5-0.3-2.1-0.8C8.9,9.3,8.6,8.5,8.7,7.7c0-0.8,0.2-1.6,0.8-2.2c0.5-0.6,1.2-0.9,2-0.8c0.8,0,1.5,0.3,2,0.8
	c0.5,0.6,0.8,1.4,0.7,2.2L14.2,8z M12.8,6.9c-0.1-0.6-0.7-1-1.3-1c-0.2,0-0.3,0-0.5,0.1c-0.1,0-0.3,0.1-0.4,0.2
	c-0.1,0.1-0.2,0.2-0.3,0.3c-0.1,0.1-0.2,0.3-0.2,0.5L12.8,6.9z"/>
<path class="st0" d="M15.7,4.8h1.3v0.5c0.4-0.4,1-0.7,1.6-0.7c0.6,0,1.2,0.2,1.6,0.6c0.4,0.5,0.5,1.1,0.5,1.8v3.6h-1.4V7.3
	c0-0.4,0-0.8-0.2-1.2c-0.2-0.2-0.5-0.4-0.9-0.3c-0.4,0-0.7,0.1-1,0.4c-0.2,0.5-0.3,1-0.3,1.5v2.8h-1.3V4.8z"/>
<path class="st0" d="M23.8,6v4.6h-1.3V6h-0.6V4.8h0.6V2.6h1.3v2.1h1V6H23.8z"/>
<path class="st0" d="M25.8,4.8h1.3v0.5c0.2-0.2,0.4-0.4,0.7-0.5c0.2-0.1,0.5-0.2,0.7-0.1c0.4,0,0.8,0.1,1.1,0.4L29,6.2
	c-0.2-0.2-0.5-0.3-0.8-0.3c-0.7,0-1.1,0.6-1.1,1.7v3h-1.3V4.8z"/>
<path class="st0" d="M35.6,8h-4.2c0,0.4,0.2,0.8,0.5,1.1c0.3,0.3,0.7,0.4,1.1,0.4c0.3,0,0.6-0.1,0.8-0.2c0.3-0.3,0.5-0.5,0.7-0.9
	l1.1,0.6c-0.2,0.3-0.3,0.5-0.6,0.8c-0.2,0.2-0.4,0.4-0.6,0.5c-0.2,0.1-0.5,0.2-0.7,0.3c-0.3,0.1-0.6,0.1-0.8,0.1
	c-0.8,0-1.5-0.3-2.1-0.9C30.3,9.3,30,8.5,30,7.7c0-0.8,0.3-1.6,0.8-2.2c1.1-1.1,2.9-1.1,4.1,0c0.5,0.6,0.8,1.4,0.7,2.2L35.6,8z
	 M34.2,6.9c-0.1-0.6-0.7-1.1-1.4-1c-0.2,0-0.3,0-0.5,0.1C32.2,6,32.1,6,32,6.1c-0.1,0.1-0.2,0.2-0.3,0.3c-0.1,0.1-0.2,0.3-0.2,0.5
	L34.2,6.9z"/>
<path class="st0" d="M42.2,6v4.6h-1.4V6h-0.5V4.8h0.5V2.5C40.8,2,40.9,1.4,41.2,1c0.4-0.4,0.9-0.7,1.5-0.6c0.3,0,0.6,0.1,0.9,0.2
	v1.4l-0.1-0.1c-0.2-0.1-0.5-0.2-0.7-0.2c-0.2,0-0.4,0.1-0.5,0.3c-0.1,0.3-0.2,0.7-0.1,1v1.9h1.5v1.2L42.2,6z"/>
<path class="st0" d="M44.3,7.6c0-0.8,0.3-1.6,0.9-2.1c1.2-1.2,3.2-1.2,4.4,0c1.2,1.2,1.2,3.2,0,4.4c-0.6,0.6-1.4,0.9-2.2,0.9
	c-0.8,0-1.6-0.3-2.2-0.9C44.6,9.3,44.3,8.5,44.3,7.6z M45.7,7.6c0,0.5,0.1,1,0.5,1.4c0.7,0.7,1.8,0.7,2.5,0c0.6-0.8,0.6-1.9,0-2.7
	c-0.7-0.7-1.8-0.7-2.5,0C45.8,6.7,45.7,7.2,45.7,7.6L45.7,7.6z"/>
<path class="st0" d="M51.9,4.8h1.3v0.5c0.2-0.2,0.4-0.4,0.7-0.5c0.2-0.1,0.5-0.2,0.7-0.1c0.4,0,0.8,0.1,1.1,0.4l-0.6,1.2
	c-0.2-0.2-0.5-0.3-0.8-0.3c-0.7,0-1.1,0.6-1.1,1.7v3h-1.3V4.8z"/>
<path class="st0" d="M61.9,1.4v9.2h-1.4V1.4H61.9z"/>
<path class="st0" d="M63.9,4.8h1.3v0.5c0.4-0.4,1-0.7,1.6-0.7c0.6,0,1.2,0.2,1.6,0.6C68.8,5.8,69,6.4,68.9,7v3.6h-1.3V7.3
	c0-0.4,0-0.8-0.2-1.2c-0.2-0.2-0.5-0.4-0.8-0.3c-0.4,0-0.7,0.1-0.9,0.4c-0.2,0.5-0.3,1-0.3,1.5v2.8h-1.4V4.8z"/>
<path class="st0" d="M72,6v4.6h-1.3V6h-0.6V4.8h0.6V2.6H72v2.1h1V6H72z"/>
<path class="st0" d="M79.3,8h-4.2c0,0.4,0.2,0.8,0.5,1.1c0.3,0.3,0.7,0.4,1.1,0.4c0.3,0,0.6-0.1,0.8-0.2c0.3-0.3,0.5-0.5,0.7-0.9
	l1.1,0.6c-0.2,0.3-0.4,0.5-0.6,0.8c-0.2,0.2-0.4,0.4-0.6,0.5c-0.2,0.1-0.5,0.2-0.7,0.3c-0.3,0.1-0.6,0.1-0.8,0.1
	c-0.8,0-1.5-0.3-2.1-0.8c-0.5-0.6-0.8-1.4-0.7-2.3c0-0.8,0.2-1.6,0.8-2.2c1.1-1.1,2.9-1.1,4.1,0c0.5,0.6,0.8,1.4,0.7,2.2L79.3,8z
	 M78,6.9c-0.1-0.6-0.7-1-1.4-1c-0.2,0-0.3,0-0.5,0.1C76,6,75.9,6,75.8,6.1c-0.1,0.1-0.2,0.2-0.3,0.3c-0.1,0.1-0.2,0.3-0.2,0.5
	L78,6.9z"/>
<path class="st0" d="M80.8,4.8h1.3v0.5c0.2-0.2,0.4-0.4,0.7-0.5c0.2-0.1,0.5-0.2,0.7-0.1c0.4,0,0.8,0.1,1.1,0.4L84,6.2
	c-0.2-0.2-0.5-0.3-0.8-0.3c-0.7,0-1.1,0.6-1.1,1.7v3h-1.3V4.8z"/>
<path class="st0" d="M85.8,4.8h1.3v0.5c0.4-0.4,1-0.7,1.6-0.7c0.6,0,1.2,0.2,1.6,0.6c0.4,0.5,0.5,1.1,0.5,1.8v3.6h-1.3V7.3
	c0-0.4,0-0.8-0.2-1.2c-0.2-0.2-0.5-0.4-0.8-0.3c-0.4,0-0.7,0.1-0.9,0.4c-0.2,0.5-0.3,1-0.3,1.5v2.8h-1.4V4.8z"/>
<path class="st0" d="M96.6,4.8h1.3v5.8h-1.3V10c-1,1-2.6,1-3.6,0c0,0-0.1-0.1-0.1-0.1C92.3,9.2,92,8.4,92,7.6c0-0.8,0.3-1.6,0.8-2.2
	c0.5-0.6,1.2-0.9,2-0.9c0.7,0,1.4,0.3,1.8,0.8L96.6,4.8z M93.4,7.7c0,0.5,0.1,1,0.4,1.4c0.3,0.3,0.7,0.5,1.2,0.5
	c0.5,0,0.9-0.2,1.2-0.5c0.6-0.8,0.6-1.9,0-2.7C95.9,6,95.5,5.8,95,5.9c-0.4,0-0.9,0.2-1.2,0.5C93.5,6.7,93.4,7.2,93.4,7.7z"/>
<path class="st0" d="M101.1,6v4.6h-1.3V6h-0.6V4.8h0.6V2.6h1.3v2.1h1V6H101.1z"/>
<path class="st0" d="M103.1,2.3c0-0.5,0.4-0.9,0.9-0.9c0.2,0,0.5,0.1,0.6,0.3c0.2,0.2,0.3,0.4,0.3,0.6c0,0.2-0.1,0.5-0.3,0.6
	c-0.2,0.2-0.4,0.3-0.6,0.3c-0.2,0-0.5-0.1-0.6-0.3C103.2,2.8,103.1,2.6,103.1,2.3z M104.6,4.8v5.8h-1.3V4.8H104.6z"/>
<path class="st0" d="M105.8,7.6c0-0.8,0.3-1.6,0.9-2.1c1.2-1.2,3.2-1.2,4.4,0c1.2,1.2,1.2,3.2,0,4.4c-0.6,0.6-1.4,0.9-2.2,0.9
	c-0.8,0-1.6-0.3-2.2-0.9C106.1,9.3,105.8,8.5,105.8,7.6z M107.2,7.6c0,0.5,0.1,1,0.5,1.4c0.7,0.7,1.8,0.7,2.5,0
	c0.6-0.8,0.6-1.9,0-2.7c-0.7-0.7-1.8-0.7-2.5,0C107.3,6.7,107.2,7.2,107.2,7.6L107.2,7.6z"/>
<path class="st0" d="M113.4,4.8h1.3v0.5c0.4-0.4,1-0.7,1.6-0.7c0.6,0,1.2,0.2,1.6,0.6c0.4,0.5,0.5,1.1,0.5,1.8v3.6H117V7.3
	c0-0.4,0-0.8-0.2-1.2c-0.2-0.2-0.5-0.4-0.8-0.3c-0.4,0-0.7,0.1-0.9,0.4c-0.2,0.5-0.3,1-0.3,1.5v2.8h-1.3L113.4,4.8z"/>
<path class="st0" d="M124.4,4.8h1.3v5.8h-1.3V10c-1,1-2.6,1-3.6,0c0,0-0.1-0.1-0.1-0.1c-0.5-0.6-0.8-1.4-0.8-2.2
	c0-0.8,0.3-1.6,0.8-2.2c0.5-0.6,1.2-0.9,2-0.9c0.7,0,1.4,0.3,1.8,0.8L124.4,4.8z M121.2,7.7c0,0.5,0.1,1,0.4,1.4
	c0.3,0.3,0.7,0.5,1.2,0.5c0.5,0,0.9-0.2,1.2-0.5c0.6-0.8,0.6-1.9,0-2.7c-0.3-0.3-0.7-0.5-1.2-0.5c-0.4,0-0.9,0.2-1.2,0.5
	C121.3,6.7,121.2,7.2,121.2,7.7z"/>
<path class="st0" d="M128.8,0.5v10.1h-1.3V0.5H128.8z"/>
<path class="st0" d="M5.4,20.5h3.8v0.3c0,0.6-0.1,1.2-0.2,1.8c-0.2,0.5-0.4,1-0.8,1.4c-0.8,1-2,1.5-3.3,1.4c-1.3,0-2.5-0.5-3.3-1.4
	c-1.9-1.9-1.9-4.9,0-6.8c0.9-0.9,2.2-1.5,3.5-1.4c0.7,0,1.4,0.1,2,0.4c0.7,0.4,1.3,0.8,1.8,1.4l-1,1c-0.6-0.9-1.7-1.5-2.8-1.5
	c-0.9,0-1.8,0.3-2.5,1c-0.7,0.7-1,1.6-1,2.5c0,1,0.4,1.9,1.1,2.5c0.6,0.6,1.4,0.9,2.2,0.9c0.7,0,1.3-0.2,1.8-0.7
	c0.5-0.4,0.8-1,0.9-1.7H5.4V20.5z"/>
<path class="st0" d="M10.4,22.3c0-0.8,0.3-1.6,0.9-2.2c1.2-1.2,3.2-1.2,4.4,0c1.2,1.2,1.2,3.2,0,4.4c-0.6,0.6-1.4,0.9-2.2,0.9
	c-0.8,0-1.6-0.3-2.2-0.9C10.7,23.9,10.4,23.1,10.4,22.3z M11.8,22.3c0,0.5,0.1,1,0.5,1.4c0.3,0.3,0.8,0.5,1.3,0.5
	c0.5,0,0.9-0.2,1.3-0.5c0.6-0.8,0.6-1.9,0-2.7c-0.7-0.7-1.8-0.7-2.5,0C11.9,21.4,11.8,21.8,11.8,22.3L11.8,22.3z"/>
<path class="st0" d="M18.5,19.4l1.5,3.3l1.5-3.3H23l-3,6.2l-3-6.2L18.5,19.4z"/>
<path class="st0" d="M29,22.7h-4.2c0,0.4,0.2,0.9,0.5,1.2c0.3,0.3,0.7,0.4,1.1,0.4c0.3,0,0.6-0.1,0.8-0.2c0.3-0.3,0.5-0.5,0.7-0.9
	l1.1,0.6c-0.2,0.3-0.3,0.5-0.6,0.8c-0.2,0.2-0.4,0.4-0.6,0.5c-0.2,0.1-0.5,0.2-0.7,0.3c-0.3,0.1-0.6,0.1-0.8,0.1
	c-0.8,0-1.5-0.3-2.1-0.8c-0.5-0.6-0.8-1.4-0.8-2.2c0-0.8,0.2-1.6,0.8-2.2c1.1-1.1,2.9-1.1,4.1,0c0.5,0.6,0.8,1.4,0.7,2.2L29,22.7z
	 M27.6,21.6c-0.1-0.7-0.7-1.1-1.4-1.1c-0.2,0-0.3,0-0.5,0.1c-0.1,0-0.3,0.1-0.4,0.2c-0.1,0.1-0.2,0.2-0.3,0.3
	c-0.1,0.1-0.2,0.3-0.2,0.5L27.6,21.6z"/>
<path class="st0" d="M30.5,19.4h1.3V20c0.2-0.2,0.4-0.4,0.7-0.5c0.2-0.1,0.5-0.2,0.7-0.1c0.4,0,0.8,0.1,1.1,0.4l-0.6,1.2
	c-0.2-0.2-0.5-0.3-0.8-0.3c-0.7,0-1.1,0.6-1.1,1.7v3h-1.3V19.4z"/>
<path class="st0" d="M35.2,19.4h1.3V20c0.4-0.4,1-0.7,1.6-0.7c0.6,0,1.2,0.2,1.6,0.6c0.4,0.5,0.5,1.1,0.5,1.8v3.6h-1.3V22
	c0-0.4-0.1-0.8-0.2-1.2c-0.2-0.2-0.5-0.4-0.8-0.3c-0.4,0-0.7,0.1-1,0.4c-0.2,0.5-0.3,1-0.3,1.5v2.8h-1.4V19.4z"/>
<path class="st0" d="M46.2,19.4h1.3v5.8h-1.3v-0.6c-1,1-2.6,1-3.6,0c0,0-0.1-0.1-0.1-0.1c-0.5-0.6-0.8-1.4-0.8-2.2
	c0-0.8,0.3-1.6,0.8-2.2c0.5-0.6,1.2-0.9,2-0.9c0.7,0,1.4,0.3,1.8,0.8L46.2,19.4z M43,22.3c0,0.5,0.1,1,0.5,1.4
	c0.3,0.3,0.7,0.5,1.2,0.5c0.5,0,0.9-0.2,1.2-0.5c0.6-0.8,0.6-1.9,0-2.7c-0.3-0.3-0.7-0.5-1.2-0.5c-0.4,0-0.9,0.2-1.2,0.5
	C43.2,21.4,43,21.9,43,22.3z"/>
<path class="st0" d="M49.3,19.4h1.3V20c0.4-0.4,1-0.7,1.6-0.7c0.6,0,1.2,0.2,1.6,0.6c0.4,0.5,0.5,1.1,0.5,1.8v3.6h-1.4V22
	c0-0.4-0.1-0.8-0.2-1.2c-0.2-0.2-0.5-0.4-0.8-0.3c-0.4,0-0.7,0.1-1,0.4c-0.2,0.5-0.3,1-0.3,1.5v2.8h-1.4V19.4z"/>
<path class="st0" d="M60.5,19.7v1.8c-0.2-0.3-0.5-0.6-0.8-0.8c-0.3-0.1-0.5-0.2-0.8-0.2c-0.5,0-0.9,0.2-1.3,0.5
	c-0.3,0.4-0.5,0.8-0.5,1.3c0,0.5,0.2,1,0.5,1.3c0.3,0.4,0.8,0.5,1.2,0.5c0.3,0,0.6-0.1,0.8-0.2c0.3-0.2,0.6-0.5,0.8-0.8V25
	c-0.5,0.3-1.1,0.4-1.6,0.4c-0.8,0-1.7-0.3-2.3-0.9c-0.6-0.6-0.9-1.4-0.9-2.2c0-0.8,0.3-1.6,0.9-2.2c0.6-0.6,1.4-0.9,2.3-0.9
	C59.5,19.3,60,19.4,60.5,19.7z"/>
<path class="st0" d="M67.5,22.7h-4.2c0,0.4,0.2,0.9,0.5,1.2c0.3,0.3,0.7,0.4,1.1,0.4c0.3,0,0.6-0.1,0.8-0.2c0.3-0.3,0.5-0.5,0.7-0.9
	l1.1,0.6c-0.2,0.3-0.3,0.5-0.6,0.8c-0.2,0.2-0.4,0.4-0.6,0.5c-0.2,0.1-0.5,0.2-0.7,0.3c-0.3,0.1-0.6,0.1-0.8,0.1
	c-0.8,0-1.5-0.3-2.1-0.8c-0.5-0.6-0.8-1.4-0.8-2.2c0-0.8,0.2-1.6,0.8-2.2c1.1-1.1,2.9-1.1,4.1,0c0.5,0.6,0.8,1.4,0.7,2.2L67.5,22.7z
	 M66.1,21.6c-0.1-0.6-0.7-1.1-1.3-1.1c-0.2,0-0.3,0-0.5,0.1c-0.1,0-0.3,0.1-0.4,0.2c-0.1,0.1-0.2,0.2-0.3,0.3
	c-0.1,0.1-0.2,0.3-0.2,0.5L66.1,21.6z"/>
<path class="st0" d="M74.6,16v9.2h-1.4V16H74.6z"/>
<path class="st0" d="M76.5,19.4h1.3V20c0.4-0.4,1-0.7,1.6-0.7c0.6,0,1.2,0.2,1.6,0.6c0.4,0.5,0.5,1.1,0.5,1.8v3.6h-1.3V22
	c0-0.4-0.1-0.8-0.2-1.2c-0.2-0.2-0.5-0.4-0.8-0.3c-0.4,0-0.7,0.1-0.9,0.4c-0.2,0.5-0.3,1-0.3,1.5v2.8h-1.4V19.4z"/>
<path class="st0" d="M83.1,19.4h1.3V20c0.4-0.4,1-0.7,1.6-0.7c0.6,0,1.2,0.2,1.6,0.6c0.4,0.5,0.5,1.1,0.5,1.8v3.6h-1.3V22
	c0-0.4-0.1-0.8-0.2-1.2c-0.2-0.2-0.5-0.4-0.8-0.3c-0.4,0-0.7,0.1-0.9,0.4c-0.2,0.5-0.3,1-0.3,1.5v2.8h-1.4V19.4z"/>
<path class="st0" d="M89.3,22.3c0-0.8,0.3-1.6,0.9-2.2c1.2-1.2,3.2-1.2,4.4,0c1.2,1.2,1.2,3.2,0,4.4c-0.6,0.6-1.4,0.9-2.2,0.9
	c-0.8,0-1.6-0.3-2.2-0.9C89.7,23.9,89.3,23.1,89.3,22.3z M90.7,22.3c0,0.5,0.1,1,0.5,1.4c0.7,0.7,1.8,0.7,2.5,0
	c0.6-0.8,0.6-1.9,0-2.7c-0.7-0.7-1.8-0.7-2.5,0C90.9,21.4,90.7,21.8,90.7,22.3L90.7,22.3z"/>
<path class="st0" d="M97.4,19.4l1.5,3.3l1.5-3.3h1.5l-3,6.2l-3-6.2L97.4,19.4z"/>
<path class="st0" d="M107,19.4h1.3v5.8H107v-0.6c-1,1-2.6,1-3.6,0c0,0-0.1-0.1-0.1-0.1c-0.5-0.6-0.8-1.4-0.8-2.2
	c0-0.8,0.3-1.6,0.8-2.2c0.5-0.6,1.2-0.9,2-0.9c0.7,0,1.4,0.3,1.8,0.8L107,19.4z M103.8,22.3c0,0.5,0.1,1,0.4,1.4
	c0.3,0.3,0.7,0.5,1.2,0.5c0.5,0,0.9-0.2,1.2-0.5c0.6-0.8,0.6-1.9,0-2.7c-0.3-0.3-0.7-0.5-1.2-0.5c-0.4,0-0.9,0.2-1.2,0.5
	C104,21.4,103.8,21.9,103.8,22.3z"/>
<path class="st0" d="M111.5,20.7v4.6h-1.3v-4.6h-0.6v-1.3h0.6v-2.1h1.3v2.1h1v1.2L111.5,20.7z"/>
<path class="st0" d="M113.6,17c0-0.5,0.4-0.9,0.9-0.9c0.2,0,0.5,0.1,0.6,0.3c0.2,0.2,0.3,0.4,0.3,0.6c0,0.2-0.1,0.5-0.3,0.6
	c-0.2,0.2-0.4,0.3-0.6,0.3c-0.2,0-0.5-0.1-0.6-0.3C113.7,17.5,113.6,17.3,113.6,17z M115.1,19.4v5.8h-1.3v-5.8H115.1z"/>
<path class="st0" d="M116.3,22.3c0-0.8,0.3-1.6,0.9-2.2c1.2-1.2,3.2-1.2,4.4,0c1.2,1.2,1.2,3.2,0,4.4c-0.6,0.6-1.4,0.9-2.2,0.9
	c-0.8,0-1.6-0.3-2.2-0.9C116.6,23.9,116.3,23.1,116.3,22.3z M117.7,22.3c0,0.5,0.1,1,0.5,1.4c0.7,0.7,1.8,0.7,2.5,0
	c0.6-0.8,0.6-1.9,0-2.7c-0.7-0.7-1.8-0.7-2.5,0C117.8,21.4,117.7,21.8,117.7,22.3L117.7,22.3z"/>
<path class="st0" d="M123.9,19.4h1.3V20c0.4-0.4,1-0.7,1.6-0.7c0.6,0,1.2,0.2,1.6,0.6c0.4,0.5,0.5,1.1,0.5,1.8v3.6h-1.3V22
	c0-0.4,0-0.8-0.2-1.2c-0.2-0.2-0.5-0.4-0.8-0.3c-0.4,0-0.7,0.1-0.9,0.4c-0.2,0.5-0.3,1-0.3,1.5v2.8h-1.3L123.9,19.4z"/>
</svg>
